<mxfile host="Electron" agent="Mozilla/5.0 (Windows NT 10.0; Win64; x64) AppleWebKit/537.36 (KHTML, like Gecko) draw.io/26.2.15 Chrome/134.0.6998.205 Electron/35.2.1 Safari/537.36" version="26.2.15">
  <diagram name="第 1 页" id="jutOIY6SssQ-5tORfhLi">
    <mxGraphModel dx="1213" dy="828" grid="1" gridSize="10" guides="1" tooltips="1" connect="1" arrows="1" fold="1" page="1" pageScale="1" pageWidth="827" pageHeight="1169" math="0" shadow="0">
      <root>
        <mxCell id="0" />
        <mxCell id="1" parent="0" />
        <mxCell id="C8f79iCDDhOMxNhhSIbN-1" value="" style="swimlane;startSize=0;" vertex="1" parent="1">
          <mxGeometry x="170" y="140" width="460" height="580" as="geometry" />
        </mxCell>
        <mxCell id="C8f79iCDDhOMxNhhSIbN-7" value="停车费缴纳" style="ellipse;whiteSpace=wrap;html=1;" vertex="1" parent="C8f79iCDDhOMxNhhSIbN-1">
          <mxGeometry x="30" y="80" width="140" height="70" as="geometry" />
        </mxCell>
        <mxCell id="C8f79iCDDhOMxNhhSIbN-8" value="线上支付" style="ellipse;whiteSpace=wrap;html=1;" vertex="1" parent="C8f79iCDDhOMxNhhSIbN-1">
          <mxGeometry x="250" y="50" width="140" height="70" as="geometry" />
        </mxCell>
        <mxCell id="C8f79iCDDhOMxNhhSIbN-9" value="现金支付" style="ellipse;whiteSpace=wrap;html=1;" vertex="1" parent="C8f79iCDDhOMxNhhSIbN-1">
          <mxGeometry x="250" y="140" width="140" height="70" as="geometry" />
        </mxCell>
        <mxCell id="C8f79iCDDhOMxNhhSIbN-10" value="现金支付处理" style="ellipse;whiteSpace=wrap;html=1;" vertex="1" parent="C8f79iCDDhOMxNhhSIbN-1">
          <mxGeometry x="40" y="180" width="140" height="70" as="geometry" />
        </mxCell>
        <mxCell id="C8f79iCDDhOMxNhhSIbN-11" value="支付异常处理" style="ellipse;whiteSpace=wrap;html=1;" vertex="1" parent="C8f79iCDDhOMxNhhSIbN-1">
          <mxGeometry x="40" y="270" width="140" height="70" as="geometry" />
        </mxCell>
        <mxCell id="C8f79iCDDhOMxNhhSIbN-12" value="订单管理" style="ellipse;whiteSpace=wrap;html=1;" vertex="1" parent="C8f79iCDDhOMxNhhSIbN-1">
          <mxGeometry x="50" y="360" width="140" height="70" as="geometry" />
        </mxCell>
        <mxCell id="C8f79iCDDhOMxNhhSIbN-13" value="计费规则管理" style="ellipse;whiteSpace=wrap;html=1;" vertex="1" parent="C8f79iCDDhOMxNhhSIbN-1">
          <mxGeometry x="50" y="460" width="140" height="70" as="geometry" />
        </mxCell>
        <mxCell id="C8f79iCDDhOMxNhhSIbN-14" value="&amp;lt;&amp;lt;include&amp;gt;&amp;gt;" style="html=1;verticalAlign=bottom;labelBackgroundColor=none;endArrow=open;endFill=0;dashed=1;rounded=0;exitX=1;exitY=0;exitDx=0;exitDy=0;entryX=0;entryY=0.5;entryDx=0;entryDy=0;" edge="1" parent="C8f79iCDDhOMxNhhSIbN-1" source="C8f79iCDDhOMxNhhSIbN-7" target="C8f79iCDDhOMxNhhSIbN-8">
          <mxGeometry width="160" relative="1" as="geometry">
            <mxPoint x="140" y="70" as="sourcePoint" />
            <mxPoint x="300" y="70" as="targetPoint" />
          </mxGeometry>
        </mxCell>
        <mxCell id="C8f79iCDDhOMxNhhSIbN-15" value="&amp;lt;&amp;lt;include&amp;gt;&amp;gt;" style="html=1;verticalAlign=bottom;labelBackgroundColor=none;endArrow=open;endFill=0;dashed=1;rounded=0;exitX=1;exitY=1;exitDx=0;exitDy=0;entryX=0;entryY=0.5;entryDx=0;entryDy=0;" edge="1" parent="C8f79iCDDhOMxNhhSIbN-1" source="C8f79iCDDhOMxNhhSIbN-7" target="C8f79iCDDhOMxNhhSIbN-9">
          <mxGeometry width="160" relative="1" as="geometry">
            <mxPoint x="100" y="150" as="sourcePoint" />
            <mxPoint x="260" y="150" as="targetPoint" />
          </mxGeometry>
        </mxCell>
        <mxCell id="C8f79iCDDhOMxNhhSIbN-2" value="用户" style="shape=umlActor;verticalLabelPosition=bottom;verticalAlign=top;html=1;outlineConnect=0;" vertex="1" parent="1">
          <mxGeometry x="80" y="220" width="30" height="60" as="geometry" />
        </mxCell>
        <mxCell id="C8f79iCDDhOMxNhhSIbN-3" value="值班员" style="shape=umlActor;verticalLabelPosition=bottom;verticalAlign=top;html=1;outlineConnect=0;" vertex="1" parent="1">
          <mxGeometry x="80" y="400" width="30" height="60" as="geometry" />
        </mxCell>
        <mxCell id="C8f79iCDDhOMxNhhSIbN-4" value="管理员" style="shape=umlActor;verticalLabelPosition=bottom;verticalAlign=top;html=1;outlineConnect=0;" vertex="1" parent="1">
          <mxGeometry x="80" y="570" width="30" height="60" as="geometry" />
        </mxCell>
        <mxCell id="C8f79iCDDhOMxNhhSIbN-5" value="&lt;font style=&quot;font-size: 20px;&quot;&gt;计费缴费子系统&lt;/font&gt;" style="text;html=1;align=center;verticalAlign=middle;resizable=0;points=[];autosize=1;strokeColor=none;fillColor=none;" vertex="1" parent="1">
          <mxGeometry x="180" y="153" width="160" height="40" as="geometry" />
        </mxCell>
        <mxCell id="C8f79iCDDhOMxNhhSIbN-16" value="" style="endArrow=classic;html=1;rounded=0;exitX=0.5;exitY=0.5;exitDx=0;exitDy=0;exitPerimeter=0;" edge="1" parent="1" source="C8f79iCDDhOMxNhhSIbN-2" target="C8f79iCDDhOMxNhhSIbN-7">
          <mxGeometry width="50" height="50" relative="1" as="geometry">
            <mxPoint x="390" y="550" as="sourcePoint" />
            <mxPoint x="440" y="500" as="targetPoint" />
          </mxGeometry>
        </mxCell>
        <mxCell id="C8f79iCDDhOMxNhhSIbN-17" value="" style="endArrow=classic;html=1;rounded=0;entryX=0;entryY=0.5;entryDx=0;entryDy=0;exitX=0.5;exitY=0.5;exitDx=0;exitDy=0;exitPerimeter=0;" edge="1" parent="1" source="C8f79iCDDhOMxNhhSIbN-3" target="C8f79iCDDhOMxNhhSIbN-10">
          <mxGeometry width="50" height="50" relative="1" as="geometry">
            <mxPoint x="100" y="250" as="sourcePoint" />
            <mxPoint x="440" y="500" as="targetPoint" />
          </mxGeometry>
        </mxCell>
        <mxCell id="C8f79iCDDhOMxNhhSIbN-18" value="" style="endArrow=classic;html=1;rounded=0;exitX=0.5;exitY=0.5;exitDx=0;exitDy=0;exitPerimeter=0;entryX=0;entryY=0.5;entryDx=0;entryDy=0;" edge="1" parent="1" source="C8f79iCDDhOMxNhhSIbN-3" target="C8f79iCDDhOMxNhhSIbN-11">
          <mxGeometry width="50" height="50" relative="1" as="geometry">
            <mxPoint x="390" y="550" as="sourcePoint" />
            <mxPoint x="440" y="500" as="targetPoint" />
          </mxGeometry>
        </mxCell>
        <mxCell id="C8f79iCDDhOMxNhhSIbN-19" value="" style="endArrow=classic;html=1;rounded=0;exitX=0.5;exitY=0.5;exitDx=0;exitDy=0;exitPerimeter=0;entryX=0;entryY=0.5;entryDx=0;entryDy=0;" edge="1" parent="1" source="C8f79iCDDhOMxNhhSIbN-3" target="C8f79iCDDhOMxNhhSIbN-12">
          <mxGeometry width="50" height="50" relative="1" as="geometry">
            <mxPoint x="390" y="550" as="sourcePoint" />
            <mxPoint x="440" y="500" as="targetPoint" />
          </mxGeometry>
        </mxCell>
        <mxCell id="C8f79iCDDhOMxNhhSIbN-20" value="" style="endArrow=classic;html=1;rounded=0;exitX=0.5;exitY=0.5;exitDx=0;exitDy=0;exitPerimeter=0;entryX=0;entryY=0.5;entryDx=0;entryDy=0;" edge="1" parent="1" source="C8f79iCDDhOMxNhhSIbN-4" target="C8f79iCDDhOMxNhhSIbN-12">
          <mxGeometry width="50" height="50" relative="1" as="geometry">
            <mxPoint x="390" y="550" as="sourcePoint" />
            <mxPoint x="440" y="500" as="targetPoint" />
          </mxGeometry>
        </mxCell>
        <mxCell id="C8f79iCDDhOMxNhhSIbN-21" value="" style="endArrow=classic;html=1;rounded=0;exitX=0.5;exitY=0.5;exitDx=0;exitDy=0;exitPerimeter=0;entryX=0;entryY=0.5;entryDx=0;entryDy=0;" edge="1" parent="1" source="C8f79iCDDhOMxNhhSIbN-4" target="C8f79iCDDhOMxNhhSIbN-13">
          <mxGeometry width="50" height="50" relative="1" as="geometry">
            <mxPoint x="390" y="550" as="sourcePoint" />
            <mxPoint x="440" y="500" as="targetPoint" />
          </mxGeometry>
        </mxCell>
      </root>
    </mxGraphModel>
  </diagram>
</mxfile>
